<?xml version="1.0" standalone="no"?>
<!DOCTYPE svg PUBLIC "-//W3C//DTD SVG 20010904//EN"
 "http://www.w3.org/TR/2001/REC-SVG-20010904/DTD/svg10.dtd">
<svg version="1.0" xmlns="http://www.w3.org/2000/svg"
 width="1024.000000pt" height="1024.000000pt" viewBox="0 0 1024.000000 1024.000000"
 preserveAspectRatio="xMidYMid meet">
<metadata>
Created by potrace 1.14, written by Peter Selinger 2001-2017
</metadata>
<g transform="translate(0.000000,1024.000000) scale(0.100000,-0.100000)"
fill="#000000" stroke="none">
<path d="M4205 9018 c-84 -53 -334 -198 -341 -198 -2 0 -22 -11 -44 -25 -22
-14 -40 -22 -40 -18 0 5 -4 3 -8 -3 -8 -11 -84 -49 -91 -45 -2 2 -7 -1 -10 -7
-3 -5 -49 -30 -101 -55 -186 -89 -333 -157 -339 -157 -4 0 -29 -11 -57 -24
-56 -26 -421 -173 -444 -178 -8 -2 -17 -5 -20 -8 -6 -6 -187 -70 -214 -75 -27
-6 -37 -27 -23 -45 7 -8 32 -55 57 -105 25 -49 49 -93 55 -97 5 -4 7 -8 3 -8
-3 0 30 -69 73 -152 44 -84 103 -199 132 -256 28 -57 58 -114 65 -127 11 -20
9 -33 -8 -82 -12 -32 -50 -141 -86 -243 -36 -102 -69 -194 -74 -205 -5 -11
-36 -99 -70 -195 -33 -96 -64 -182 -67 -190 -3 -8 -7 -17 -8 -20 -1 -3 -4 -12
-8 -20 -3 -8 -10 -31 -16 -50 -5 -19 -23 -71 -40 -115 -17 -44 -33 -87 -35
-95 -1 -8 -9 -28 -15 -45 -7 -16 -14 -34 -15 -40 -6 -27 -30 -91 -39 -102 -5
-7 -6 -13 -1 -13 4 0 3 -5 -4 -12 -7 -7 -12 -18 -12 -24 0 -7 -5 -25 -12 -41
-6 -15 -12 -31 -13 -35 -2 -5 -4 -10 -5 -13 -1 -3 -3 -8 -4 -12 -4 -18 -18
-59 -26 -78 -15 -36 -35 -90 -35 -95 0 -4 -33 -97 -53 -150 -3 -8 -6 -17 -7
-20 0 -3 -11 -32 -24 -65 -12 -33 -24 -67 -26 -75 -2 -8 -11 -32 -19 -52 -9
-21 -13 -38 -10 -38 4 0 2 -6 -3 -12 -6 -7 -23 -51 -38 -98 -16 -47 -32 -89
-37 -95 -4 -5 -8 -15 -8 -21 0 -7 -4 -23 -9 -36 -5 -13 -10 -27 -11 -33 -3
-13 -29 -84 -41 -110 -11 -26 -99 -275 -104 -295 -2 -8 -9 -28 -16 -45 -7 -16
-13 -32 -14 -35 -1 -3 -4 -12 -7 -20 -12 -30 -70 -195 -72 -205 -3 -11 -14
-40 -26 -70 -4 -11 -29 -78 -54 -150 -25 -71 -65 -186 -89 -255 -25 -69 -70
-197 -101 -285 -31 -88 -61 -169 -66 -180 -11 -24 -81 -206 -84 -220 -2 -5
-12 -30 -23 -55 -11 -25 -30 -72 -44 -105 -13 -33 -28 -63 -32 -66 -5 -3 -8
-10 -8 -15 2 -13 -72 -178 -81 -182 -5 -2 -8 -8 -8 -13 0 -11 -72 -161 -81
-169 -3 -3 -13 -21 -22 -40 -25 -49 -69 -124 -77 -130 -3 -3 -17 -23 -30 -45
-13 -22 -28 -44 -32 -50 -4 -5 -43 -56 -87 -113 -43 -57 -94 -120 -112 -141
-19 -20 -54 -61 -79 -91 -25 -29 -129 -139 -232 -244 -167 -169 -188 -194
-188 -223 l0 -33 1086 2 1087 3 3 26 c1 14 -1 30 -4 35 -10 14 -101 74 -113
74 -5 0 -9 4 -9 8 0 5 -18 18 -40 31 -22 12 -40 26 -40 32 0 5 -6 9 -12 9 -28
0 -299 232 -358 306 -42 52 -89 124 -112 169 -25 51 -65 167 -66 195 -1 8 -4
31 -8 50 -12 60 -4 316 11 340 3 5 16 76 19 110 1 9 5 20 8 25 5 9 14 50 24
105 4 25 11 54 27 106 8 27 16 54 17 59 1 6 4 15 5 20 2 6 7 24 11 40 4 17 8
32 9 35 1 3 7 25 14 50 6 25 13 50 15 55 2 6 5 15 6 20 2 6 11 35 22 65 10 30
20 63 23 75 2 11 20 67 40 125 20 58 38 112 40 120 7 26 30 85 38 98 6 9 234
12 1083 12 952 0 1074 -2 1074 -15 0 -8 4 -23 10 -33 5 -9 55 -154 111 -322
55 -168 105 -314 109 -325 9 -20 138 -405 146 -435 2 -8 11 -40 20 -70 22 -78
36 -133 37 -147 0 -7 4 -13 9 -13 5 0 6 -4 3 -10 -3 -5 -1 -29 6 -52 21 -79
28 -190 16 -268 -10 -68 -54 -190 -69 -190 -4 0 -8 -6 -8 -13 0 -15 -85 -113
-144 -166 -34 -32 -129 -106 -197 -153 -85 -61 -108 -77 -146 -98 -24 -13 -43
-26 -44 -29 -1 -3 -2 -19 -3 -36 l-1 -30 68 -5 c38 -3 70 -3 72 0 2 3 38 3 80
0 42 -3 78 -3 80 0 2 3 38 3 80 0 42 -3 78 -3 80 0 2 3 38 3 80 0 42 -3 78 -3
80 0 2 3 38 3 80 0 42 -3 78 -3 80 0 2 3 38 3 80 0 42 -3 78 -3 80 0 2 3 38 3
80 0 42 -3 79 -2 82 3 2 4 8 5 13 2 7 -4 72 -6 130 -4 8 0 116 0 240 0 124 0
232 0 240 0 8 0 116 0 240 0 124 0 232 0 240 0 8 1 80 1 160 0 80 0 152 0 160
0 8 0 116 0 240 0 124 0 232 0 240 0 22 0 110 0 150 -1 19 -1 36 -3 38 -5 2
-2 14 0 26 5 13 4 29 4 39 -1 11 -7 17 -6 17 1 0 8 6 8 20 0 14 -8 20 -8 20 0
0 8 6 8 20 0 14 -8 20 -8 20 0 0 6 5 8 12 4 11 -7 49 -7 148 -1 31 2 35 6 38
31 3 21 -3 35 -22 52 -14 13 -28 24 -30 24 -3 0 -50 34 -103 75 -130 98 -293
257 -293 285 0 5 -4 10 -10 10 -5 0 -16 13 -25 29 -8 16 -20 35 -27 43 -7 8
-19 24 -26 37 -8 13 -23 40 -35 60 -26 46 -87 170 -87 177 0 3 -6 20 -14 37
-40 88 -79 192 -78 206 5 39 1 62 -19 107 -11 27 -22 56 -24 64 -4 16 -270
722 -284 755 -5 11 -19 47 -31 80 -12 33 -26 69 -32 80 -5 12 -10 27 -12 35
-3 13 -14 45 -33 90 -3 8 -7 20 -9 25 -1 6 -28 75 -59 155 -30 80 -58 153 -60
164 -2 10 -9 23 -14 30 -5 6 -9 15 -9 19 0 10 -28 90 -49 135 -8 18 -16 40
-18 50 -2 9 -23 64 -45 122 -23 58 -46 121 -52 140 -5 19 -14 40 -18 45 -4 6
-13 28 -20 50 -7 22 -15 45 -19 50 -3 6 -6 17 -8 25 -1 8 -6 23 -12 35 -5 11
-23 56 -40 100 -128 338 -173 459 -176 469 -1 6 -7 25 -14 41 -33 79 -81 211
-81 223 0 6 -4 12 -10 12 -5 0 -9 3 -8 8 3 10 -23 85 -33 97 -5 5 -9 17 -9 27
0 10 -4 26 -10 36 -5 9 -42 103 -81 207 -39 105 -73 197 -76 205 -4 8 -7 17
-8 20 -1 3 -7 18 -13 33 -7 16 -12 34 -12 41 0 6 -4 16 -8 22 -7 8 -28 60
-114 294 -26 71 -33 90 -46 120 -6 14 -34 88 -62 165 -28 77 -58 154 -65 170
-7 17 -16 41 -20 55 -6 25 -13 42 -33 90 -13 30 -53 136 -77 205 -10 28 -22
54 -27 59 -4 6 -8 18 -8 28 0 10 -4 26 -9 36 -8 14 -17 36 -26 62 -6 19 -18
49 -27 70 -6 14 -13 30 -14 35 -5 17 -29 81 -119 315 -47 124 -87 230 -88 237
-2 7 -6 16 -10 19 -4 4 -7 13 -7 19 0 7 -8 30 -17 51 -9 22 -18 44 -19 49 -4
17 -95 258 -109 290 -7 17 -30 75 -50 130 -19 55 -39 107 -42 115 -3 8 -7 17
-8 20 -1 3 -7 19 -14 35 -7 17 -14 37 -16 45 -2 8 -4 16 -5 18 -2 1 -3 5 -5
10 -7 25 -19 42 -29 41 -6 0 -47 -23 -91 -51z m-1161 -2170 c15 -46 31 -92 36
-103 5 -11 39 -108 75 -215 37 -107 77 -226 91 -265 13 -38 27 -77 29 -85 2
-8 18 -53 35 -100 17 -47 32 -92 35 -100 2 -8 29 -87 60 -175 31 -88 57 -164
59 -170 8 -34 30 -92 39 -102 5 -7 6 -13 3 -13 -4 0 -2 -9 4 -21 6 -11 13 -28
15 -37 4 -18 42 -132 56 -167 4 -11 13 -38 20 -60 6 -22 14 -44 18 -50 3 -5 6
-13 7 -17 1 -5 3 -10 4 -13 1 -3 3 -8 4 -12 1 -5 13 -39 26 -78 13 -38 25 -73
26 -77 1 -5 3 -10 4 -13 1 -3 3 -8 5 -12 2 -10 14 -42 25 -68 5 -11 11 -29 13
-40 3 -11 37 -112 77 -225 39 -113 73 -209 74 -215 1 -5 5 -16 10 -23 23 -37
25 -37 -885 -36 -486 1 -885 2 -886 3 -2 0 13 45 33 99 19 53 37 104 39 112 2
8 21 65 43 125 50 139 45 126 77 220 15 44 42 123 60 175 18 52 54 156 80 230
25 74 49 142 52 150 3 8 7 20 9 25 1 6 32 96 69 200 36 105 68 197 70 205 2 8
11 32 19 53 9 20 13 37 10 37 -4 0 -2 6 3 13 6 6 38 95 73 197 35 102 67 191
73 198 5 6 7 12 3 12 -3 0 4 24 15 53 12 28 22 59 24 67 2 8 31 94 65 190 34
96 64 183 67 193 3 9 6 17 8 17 1 0 14 -37 29 -82z"/>
<path d="M8875 3203 c-65 -13 -176 -44 -210 -59 -22 -10 -42 -18 -45 -19 -15
-5 -46 -20 -55 -27 -16 -13 -86 -58 -90 -58 -6 0 -96 -82 -147 -135 -126 -130
-232 -349 -242 -498 -1 -18 -5 -37 -7 -43 -11 -20 0 -213 16 -284 24 -108 22
-105 73 -210 51 -109 155 -237 250 -310 18 -14 45 -35 60 -47 46 -39 204 -111
287 -132 90 -23 116 -25 245 -25 134 1 185 6 248 26 18 5 39 11 45 12 42 9
217 96 217 108 0 4 5 8 11 8 51 0 319 300 319 357 0 7 5 13 11 13 5 0 8 4 4 9
-3 5 -1 12 4 15 16 10 56 148 67 231 17 135 9 258 -26 390 -6 22 -12 47 -14
56 -3 9 -9 25 -14 35 -6 11 -20 38 -31 61 -36 75 -44 87 -105 165 -80 101
-188 197 -276 244 -19 10 -42 24 -50 30 -17 14 -178 69 -230 79 -39 8 -284 14
-315 8z"/>
</g>
</svg>
